<?xml version="1.0" encoding="UTF-8" standalone="no"?>
<!-- Created with Inkscape (http://www.inkscape.org/) -->

<svg
   xmlns:dc="http://purl.org/dc/elements/1.1/"
   xmlns:cc="http://creativecommons.org/ns#"
   xmlns:rdf="http://www.w3.org/1999/02/22-rdf-syntax-ns#"
   xmlns:svg="http://www.w3.org/2000/svg"
   xmlns="http://www.w3.org/2000/svg"
   xmlns:sodipodi="http://sodipodi.sourceforge.net/DTD/sodipodi-0.dtd"
   xmlns:inkscape="http://www.inkscape.org/namespaces/inkscape"
   width="744.09448819"
   height="1052.3622047"
   id="svg2"
   version="1.1"
   inkscape:version="0.48.4 r9939"
   sodipodi:docname="claw.svg">
  <defs
     id="defs4" />
  <sodipodi:namedview
     id="base"
     pagecolor="#ffffff"
     bordercolor="#666666"
     borderopacity="1.0"
     inkscape:pageopacity="0.0"
     inkscape:pageshadow="2"
     inkscape:zoom="2.08"
     inkscape:cx="77.327031"
     inkscape:cy="97.082561"
     inkscape:document-units="px"
     inkscape:current-layer="layer1"
     showgrid="false"
     inkscape:window-width="1122"
     inkscape:window-height="867"
     inkscape:window-x="180"
     inkscape:window-y="32"
     inkscape:window-maximized="0" />
  <metadata
     id="metadata7">
    <rdf:RDF>
      <cc:Work
         rdf:about="">
        <dc:format>image/svg+xml</dc:format>
        <dc:type
           rdf:resource="http://purl.org/dc/dcmitype/StillImage" />
        <dc:title></dc:title>
      </cc:Work>
    </rdf:RDF>
  </metadata>
  <g
     inkscape:label="Layer 1"
     inkscape:groupmode="layer"
     id="layer1">
    <path
       style="fill:none;stroke:#000000;stroke-width:1px;stroke-linecap:butt;stroke-linejoin:miter;stroke-opacity:1"
       d="m 0,1033.0949 0,19.2673 14.423077,0 13.92338,0 0,-56.69293 14.173228,-14.17323 31.889764,0 21.263386,-14.17323 -0.48189,-28.34645 -20.781496,-14.17323 -31.889764,0 -14.173228,-14.17323 0,-85.14921 28.346456,-17.6067 21.259843,0 0,-21.25984 -21.259843,0 L 0,822.41168 z"
       id="path2985"
       inkscape:connector-curvature="0"
       sodipodi:nodetypes="ccccccccccccccccccc" />
    <path
       sodipodi:type="arc"
       style="fill:none;stroke:#000000;stroke-width:5.31496048;stroke-linejoin:round;stroke-miterlimit:4;stroke-opacity:1;stroke-dasharray:none;stroke-dashoffset:0"
       id="path2987"
       sodipodi:cx="49.257427"
       sodipodi:cy="975.38196"
       sodipodi:rx="1.2376238"
       sodipodi:ry="1.2376238"
       d="m 50.495051,975.38196 a 1.2376238,1.2376238 0 1 1 -2.475248,0 1.2376238,1.2376238 0 1 1 2.475248,0 z"
       transform="matrix(1.3645234,0,0,1.3645234,10.739844,-377.78192)" />
    <path
       sodipodi:type="arc"
       style="fill:none;stroke:#000000;stroke-width:5.31496048;stroke-linejoin:round;stroke-miterlimit:4;stroke-opacity:1;stroke-dasharray:none;stroke-dashoffset:0"
       id="path2987-0"
       sodipodi:cx="49.257427"
       sodipodi:cy="975.38196"
       sodipodi:rx="1.2376238"
       sodipodi:ry="1.2376238"
       d="m 50.495051,975.38196 a 1.2376238,1.2376238 0 1 1 -2.475248,0 1.2376238,1.2376238 0 1 1 2.475248,0 z"
       transform="matrix(1.3645234,0,0,1.3645234,-53.039684,-292.74255)" />
  </g>
</svg>
