<?xml version="1.0" encoding="UTF-8" standalone="no"?>
<!-- Created with Inkscape (http://www.inkscape.org/) -->

<svg
   xmlns:dc="http://purl.org/dc/elements/1.1/"
   xmlns:cc="http://creativecommons.org/ns#"
   xmlns:rdf="http://www.w3.org/1999/02/22-rdf-syntax-ns#"
   xmlns:svg="http://www.w3.org/2000/svg"
   xmlns="http://www.w3.org/2000/svg"
   xmlns:sodipodi="http://sodipodi.sourceforge.net/DTD/sodipodi-0.dtd"
   xmlns:inkscape="http://www.inkscape.org/namespaces/inkscape"
   width="744.09448819"
   height="1052.3622047"
   id="svg2"
   version="1.1"
   inkscape:version="0.48.4 r9939"
   sodipodi:docname="claw2.svg">
  <defs
     id="defs4" />
  <sodipodi:namedview
     id="base"
     pagecolor="#ffffff"
     bordercolor="#666666"
     borderopacity="1.0"
     inkscape:pageopacity="0.0"
     inkscape:pageshadow="2"
     inkscape:zoom="4.46"
     inkscape:cx="19.05263"
     inkscape:cy="53.51593"
     inkscape:document-units="px"
     inkscape:current-layer="layer1"
     showgrid="false"
     inkscape:window-width="1122"
     inkscape:window-height="867"
     inkscape:window-x="184"
     inkscape:window-y="40"
     inkscape:window-maximized="0" />
  <metadata
     id="metadata7">
    <rdf:RDF>
      <cc:Work
         rdf:about="">
        <dc:format>image/svg+xml</dc:format>
        <dc:type
           rdf:resource="http://purl.org/dc/dcmitype/StillImage" />
        <dc:title></dc:title>
      </cc:Work>
    </rdf:RDF>
  </metadata>
  <g
     inkscape:label="Layer 1"
     inkscape:groupmode="layer"
     id="layer1">
    <path
       style="fill:none;stroke:#000000;stroke-width:0.35433072;stroke-linecap:butt;stroke-linejoin:miter;stroke-miterlimit:4;stroke-opacity:1;stroke-dasharray:none"
       d="m 0,1045.2756 10.629921,7.0866 11.728347,0 9.531496,0 c 1.7716,0 3.209594,-3.5903 2.870661,-4.8666 -0.273257,-1.0289 -1.984834,-2.22 -1.984834,-2.22 l -6.200788,0 -1.771653,-1.7717 0,-10.6299 1.771653,-1.7717 6.200788,0 2.65748,-1.7716 0,-10.6299 -1.771654,-1.7717 -12.401574,0 -7.086615,-7.0866 0,-21.2599 17.716536,-23.0315 10.629921,0 0,-15.94488 -14.173228,0 L 0,985.03929 c 0,43.79761 0,16.43861 0,60.23631 z"
       id="path2985"
       inkscape:connector-curvature="0"
       sodipodi:nodetypes="cccsscccccccccccccccccc" />
    <path
       sodipodi:type="arc"
       style="fill:none;stroke:#000000;stroke-width:5.31496048;stroke-linejoin:round;stroke-miterlimit:4;stroke-opacity:1;stroke-dasharray:none;stroke-dashoffset:0"
       id="path2987-0"
       sodipodi:cx="49.257427"
       sodipodi:cy="975.38196"
       sodipodi:rx="1.2376238"
       sodipodi:ry="1.2376238"
       d="m 50.495051,975.38196 a 1.2376238,1.2376238 0 1 1 -2.475248,0 1.2376238,1.2376238 0 1 1 2.475248,0 z"
       transform="matrix(1.8193646,0,0,1.8193645,-77.215644,-736.38635)" />
  </g>
</svg>
